<?xml version="1.0" encoding="UTF-8"?> <svg xmlns="http://www.w3.org/2000/svg" id="Layer_2" data-name="Layer 2" viewBox="0 0 439.88 256.91"><defs><style> .cls-1 { fill: #fff; } </style></defs><g id="Layer_1-2" data-name="Layer 1"><g><path class="cls-1" d="m293.04,150.32c1.73.79,3.36.74,4.93,1.02,4.26.74,8.56.41,12.84.5,2.25.05,4.5.24,6.69.76,3.34.79,4.89,3.38,6.05,6.28.29.74-.05,1.04-.84,1.06-2.93.07-5.81-.08-8.61-1.14-2.15-.81-4.4-1.16-6.73-1.17-3.94-.03-7.79-.65-11.47-2.15-1.72-.7-3.37-1.56-4.68-2.83-2.06-2.01-4.36-1.74-6.74-1.06-8.68,2.49-17.3,5.23-26.25,6.68-3.58.58-7.19.85-10.82.41-.96-.12-1.86-.38-2.76-.73-3.21-1.23-6.62-1.69-9.97-2.25-6.08-1.01-12.18-1.88-18.28-2.7-4.49-.61-9.02-1-13.52-1.57-7.72-.99-15.47-1.68-23.22-2.44-3.9-.38-7.83-.06-11.73.24-3.4.26-6.8.49-10.2.87-3.03.33-5.97,1.15-9.01,1.39-1.62.13-3.23.29-4.85.39-.97.06-1.94.17-2.8.57-4.12,1.88-8.48,1.41-12.78,1.34-4.45-.08-8.86-.78-13.32-.93-6.78-.23-13.57-.19-20.31-1.15-.16-.02-.33-.03-.5-.04-1.98-.13-1.94-.09-2.08,1.9-.44,6.28-.26,12.57-.23,18.86.02,3.31.23,3.43,3.15,1.97,1.42-.71,2.78-1.52,3.87-2.71,1.5-1.63,2.26-3.46,1.64-5.71-.33-1.2-.65-2.41-.88-3.64-.25-1.36-.05-2.66.9-3.76,1.27-1.46,3.2-1.78,4.83-.74,1.9,1.21,3.17,3.05,4.63,4.7,1.9,2.15,3.68,4.41,5.88,6.29,2.91,2.49,7.49,2.36,10.22-.37.82-.82,1.18-1.65.56-2.78-.31-.57-.44-1.26-.54-1.91-.39-2.37,1.34-4.51,3.74-4.66,1.67-.11,3.33.05,4.97.39,5.07,1.04,9.98,2.66,14.98,3.92,5.21,1.31,10.4,2.7,15.72,3.5,3.45.52,6.91,1.04,10.43.99,1.78-.02,3.48-.32,5.16-.82,1.3-.38,2.23-1.26,3.04-2.29.41-.52.78-1.08,1.23-1.57,2.1-2.29,5.19-2.22,7.19.16,1.7,2.02,2.84,4.41,4.36,6.55,1.5,2.13,3.39,3.66,6.08,3.96,2.41.26,4.93-1.18,5.35-3.53.71-3.95,4.3-5.57,8.02-2.09,3.89,3.64,8.3,6.57,13.3,8.49,5.42,2.07,10.55,1.52,15.22-2.05,1.55-1.19,2.7-2.63,3.24-4.6.74-2.68,3.06-3.84,5.76-3.07,2.27.65,4.19,2.02,6.27,3.08,3.09,1.57,6.22,3.04,9.68,3.58,2.98.47,5.88-.3,8.8-.7.57-.08.72-.62.9-1.1,1.28-3.41,3.81-4.23,6.8-2.15,2.33,1.62,4.33,3.64,6.55,5.4,1.73,1.38,3.48,1.58,5.48,1.06,2.73-.71,5.27-1.82,7.61-3.39.73-.49,1.44-1,2.3-1.25,2.38-.7,4.35.31,5.15,2.64.09.27.14.57.24.84.12.34.14.86.6.84.58-.03.49-.59.5-.98.02-.58-.03-1.17-.03-1.75,0-2.54,2.1-4.16,4.54-3.51.31.08.66.37.91.03.2-.26-.08-.55-.2-.8-.65-1.36-1.43-2.63-2.53-3.69-.18-.17-.37-.34-.52-.54-.35-.45-.9-.94-.47-1.53.4-.54,1.01-.14,1.5.03,2.75.98,5.12,2.6,7.31,4.48.72.62,1.48,1.36,1.12,2.45-.36,1.09-1.44,1.14-2.37,1.31-.78.15-1.55-.11-2.57-.19,1.1,2.01,2.05,3.89,3.15,5.68.49.8,1.51.85,2.36.95,1.19.14,1.73.58,1.42,1.88-.21.88-.23,1.82-.58,2.68-.78,1.89-2.45,2.69-4.49,2.12-1.4-.39-2.58-1.19-3.52-2.28-.51-.6-.84-.69-1.52-.22-3.56,2.49-7.05,2.06-9.86-1.21-.58-.68-1.03-.46-1.61-.16-2.93,1.54-6.01,2.61-9.31,3.11-2.87.43-5.38-.29-7.65-1.96-1.47-1.08-2.88-2.27-4.24-3.49-.62-.55-1.06-.59-1.74-.15-2.51,1.64-5.36,2.1-8.27,2.54-7.61,1.14-14.19-1.38-20.43-5.35-.57-.36-1.05-.66-1.55.15-3.48,5.64-8.66,8.59-15.13,9.45-5.23.7-10.08-.51-14.72-2.87-3.25-1.65-6.37-3.47-9.02-6-.65-.62-1.04-.49-1.58.21-4.47,5.86-11.7,6.12-17.32,2.53-2.82-1.8-4.78-4.38-6.3-7.29-.43-.83-.78-.96-1.47-.35-3.29,2.89-7.23,3.63-11.48,3.78-8.96.33-17.53-1.77-26.09-3.96-4.96-1.27-9.89-2.68-14.83-4.02-.82-.22-1.55-.54-1.78.83-.82,4.78-4.69,8.47-9.5,9.61-6.56,1.55-11.67-.76-15.95-5.56-.47-.52-.84-.93-1.23,0-2.27,5.4-6.59,8.42-11.9,10.3-1.22.43-2.46.79-3.66,1.25-.8.3-1.14.03-1.57-.67-1.45-2.38-1.59-5.04-1.82-7.7-.48-5.7-.22-11.41-.23-17.11,0-1.95.1-3.92.33-5.86.13-1.12-.26-1.49-1.27-1.65-2.14-.34-4.24-.86-6.25-1.71-.38-.16-.77-.33-1.1-.57-1-.72-.98-1.32.04-2.01,2.51-1.7,5.37-2.44,8.31-2.87,1.07-.16,1.48-.67,1.62-1.67,1.17-8.45,3.29-16.67,6.18-24.68,3.5-9.71,8-18.94,13.47-27.7,5.75-9.2,12.55-17.52,20.29-25.11,8.96-8.78,19.01-16.06,30.01-22.06,6.27-3.42,12.84-6.14,19.61-8.41,1.85-.62,1.81-.72,2-2.66.47-4.89,1.02-9.77,1.55-14.65.46-4.26.94-8.52,1.43-12.78.08-.74.19-1.49.37-2.22.31-1.3,1.18-1.68,2.33-.99.82.49,1.63,1.02,2.2,1.82,1.32,1.83,2.89,3.44,4.39,5.11,1.45,1.62,2.83,3.31,4.25,4.96,1.69,1.97,3.03,4.27,4.43,6.45,1.59,2.49,3.15,5.1,4.38,7.82.54,1.2,1.3,1.4,2.46,1.32,2.74-.21,5.48-.45,8.23-.44,7.42.04,14.8.53,22.12,1.81,7.45,1.3,14.74,3.15,21.79,5.9.87.34,1.5.12,2.2-.36,9.93-6.88,20.67-12.33,31.42-17.74,5.62-2.83,11.1-5.91,16.53-9.09,1.73-1.01,3.12-2.5,4.71-3.7.7-.53,1.44-.99,2.17-1.47.31-.2.67-.45,1.03-.15.38.31.31.75.18,1.16-.24.75-.51,1.5-.77,2.24-2.21,6.46-4.46,12.91-6.63,19.39-.97,2.88-3.11,4.89-4.98,7.11-1.18,1.4-2.76,2.59-3.53,4.18-.79,1.62-2.01,2.53-3.25,3.61-.9.78-2,1.56-1.63,3.11.1.43-.44.66-.86.76-.68.15-1.23.51-1.67,1.04-1.35,1.64-2.68,3.29-4.04,4.92-.55.66-.34,1.04.3,1.49,5.93,4.2,11.48,8.86,16.54,14.06,8.69,8.94,16.19,18.79,22.19,29.76,6.46,11.81,11.18,24.27,14.13,37.39,1.66,7.4,2.67,14.9,3.14,22.48.29,4.79.19,9.58.19,14.36,0,1.84-.38,3.64-.93,5.4-.19.62-.56,1.07-.98,1.55-.98,1.11-2.02,2.25-1.41,3.96.22.6-.26.68-.67.8-2.12.6-3.94.02-5.56-1.38-.76-.66-1.42-1.42-1.97-2.25-.42-.63-.88-.93-1.67-.67-.47.15-.98.18-1.48.2-2.81.15-3.66-.43-4.73-3.03-.71-1.73-.86-3.55-1.11-5.36-.03-.23-.1-.54.19-.65.28-.1.46.16.61.34,1.15,1.37,1.98,2.98,3.2,4.3.65.71,1.27,1.44,2.07,1.98.28.19.57.66.95.27.28-.28-.03-.62-.17-.91-.73-1.49-1.49-2.98-2.21-4.48-.69-1.41-.54-1.72.93-2.31,1.24-.5,2.46-1.03,3.69-1.54,1.25-.52,1.59-.39,2.09.86.9,2.25,1.98,4.41,3.21,6.49.2.34.33.83.89.71.47-.1.63-.51.74-.92.28-1.05.48-2.12.51-3.2.39-13.43-.75-26.71-4.05-39.76-2.41-9.53-5.84-18.68-10.19-27.48-5.43-10.97-12.43-20.88-20.61-29.96-5.96-6.61-12.52-12.56-19.67-17.86-.91-.68-1.38-.71-2.04.29-2.97,4.48-5.87,9-8.54,13.67-.53.92-.82,1.87-.88,2.95-.21,3.7-1.45,6.84-5.05,8.57-.42.2-.69.57-.87,1.02-3,7.68-6.36,15.22-9.51,22.83-.19.46-.45.91-.55,1.39-.57,2.83-2.33,4.73-4.58,6.4-2.41,1.79-4.35,4.12-6.49,6.22-.61.61-.66.99.3,1.27,3,.86,5.93,1.96,8.98,2.67.99.23,1.86.7,2.75,1.16,1.22.62,2.27,1.66,3.9,1.27.71-.17,1.4.47,1.64,1.28.19.65.61,1.05,1.17,1.39,7.36,4.5,14.69,9.04,22.06,13.5,2.35,1.42,4.78,2.76,7.62,2.94.77.05.91.47.69,1.1-.76,2.21-2.12,3.84-4.43,4.54-1.05.32-2.18.39-3.39,1.08Zm-54.73-83.2c-.58.45-.85,1.04-.66,1.75.24.88.19,1.7-.17,2.55-.3.7-.06,1.15.82.99.45-.08.94-.27,1.34-.02.86.52.92-.08,1.13-.66.65-1.83.88-3.97,2.22-5.37,1.35-1.41,1.72-3.17,2.55-4.75.17-.32.4-.74,0-1.01-.35-.23-.74.02-1.03.24-.22.17-.38.43-.54.67-.45.7-.86,1.42-1.32,2.11-.33.48-.79.81-1.37.44-.61-.38-.45-.9-.15-1.41.29-.5.63-.98.89-1.5.36-.71.41-1.43-.04-2.13-.14-.21-.32-.41-.59-.41-.3,0-.42.25-.47.5-.64,2.75-1.47,5.44-2.6,8.03v-.02Zm-95.62,67.01c6.1-.08,11.25-1.02,16.35-2.29,1.63-.41,3.18-.94,4.6-1.87,2.86-1.87,5.77-3.66,8.62-5.52,2.33-1.52,4.9-2.68,7.03-4.51,1.66-1.43,3.55-2.46,5.5-3.42,5.45-2.68,11.09-4.98,16.22-8.3,1.28-.83,1.58-1.43,1.12-2.92-.35-1.11-.82-2.18-1.43-3.19-4.32-7.13-9.9-13.28-15.37-19.5-3.56-4.05-6.21-8.41-6.75-13.88-.28-2.82-.56-5.63-.69-8.46-.15-3.05-.19-6.07.47-9.07.93-4.23,1.5-8.52,2.09-12.81.1-.73-.16-1.04-.91-.81-.28.09-.56.15-.84.25-5.85,2.08-11.55,4.5-17.03,7.45-9.98,5.39-19.17,11.88-27.48,19.61-9.21,8.58-17.08,18.27-23.49,29.06-8.45,14.24-14.04,29.61-16.96,45.93-.43,2.37-.37,2.43,1.93,2.21.12-.01.25,0,.37-.03,3.03-.5,6.19-.48,8.94-2.08,2.05-1.19,4.07-2.44,5.86-4.03,1.72-1.52,3.43-2.94,5.87-3.31,5.02-.76,10.03-.84,15.05-.18,3.91.52,7.75,1.6,10.91,1.64Zm38.48-85.08c.56-.75.92-1.25,1.3-1.73.16-.2.38-.37.65-.25.26.11.31.38.3.64-.15,2.14-.27,4.3-2.47,5.52-.55.31-.86.73-.85,1.4.02,2.67-.06,5.33.05,8,.04,1.05-.12,2.24.58,3.13.47.6,1.22.95.07,1.59-.33.18-.2.7-.14,1.06.12.74.3,1.47.4,2.21.11.83.45,1.29,1.37,1.23.93-.06,1.34.5,1.45,1.37.09.76.09,1.5-.43,2.13-.4.48-.54,1.12-.01,1.43,1.18.7,1.75,1.81,2.37,2.92.17.31.53.52.91.89-.04-.75-.25-1.28-.1-1.82.1-.36.32-.58.7-.61.39-.03.7.16.72.53.06,1.58,1.08,1.7,2.33,1.69,1.15,0,1.44.48,1.13,1.63-.22.81-.64,1.53-1.14,2.2-.33.45-.2.89.26,1.17.38.23.62,0,.8-.33.18-.33.11-.98.73-.79.55.17.67.74.64,1.24-.03.66-.18,1.31-.33,2.28.55-.76,1.01-1.38,1.57-.81,1,1,1.99,2.16,1.95,3.63-.03.9.19,1.5.71,2.13.5.61,1.01,1.22,1.48,1.85,2.3,3.11,4.69,6.17,5.97,9.91.51,1.5.63,2.94-.45,4.25-.33.41-.31.8-.16,1.28.49,1.57.02,2.65-1.46,3.37-.75.36-1.53.67-2.29,1.01-.22.1-.5.2-.49.5,0,.38.36.41.62.52.4.16.81.12,1.23.09.99-.07,1.98-.13,2.97-.16.54-.02,1.15-.03,1.18.76.02.57-.11,1.13-.73,1.31-.68.2-1.11-.14-1.29-.82-.05-.2-.1-.41-.46-.45-.54.8-.7,1.8-1.06,2.71-.8,2-.36,2.66,1.8,2.75.69.03,1.32.1,1.67.84.21.45.12,1.37.73,1.21.57-.15.24-1.03.3-1.59.04-.33,0-.67.04-1,.09-.83.41-1.51,1.26-1.84,1.87-.72,4.2.17,5.1,1.98.35.71.69,1.42,1.05,2.13.15.29.31.64.71.6.45-.05.56-.43.68-.8.28-.8.05-1.55-.13-2.33-.12-.52-.87-1.1-.26-1.55.48-.35,1.21.04,1.78.26.6.23,1.06.67,1.36,1.24.31.59.55,1.21.84,1.81.43.91,1.09.95,1.83.41.98-.71.81-1.5.16-2.36-.41-.55-1.04-1.35.29-1.47.84-.07,1.26-.36,1.58-1.09.2-.47.65-.79,1.23-.62.68.2,1.19.64,1.41,1.31.19.6-.25.94-.72,1.15-.9.41-1.26,1.01-.94,2,.19.58.08,1.15-.25,1.68-.19.31-.53.66-.24,1.01.34.42.77.1,1.14-.05,1.13-.44,2.25-.93,3.47-.25.35.2.72.11,1.03-.19,1.36-1.29,2.72-2.57,4.08-3.87.28-.26.56-.57.26-.97-.74-1-1.51-1.99-2.27-2.98-.13-.17-.3-.31-.53-.23-.24.08-.26.31-.24.52.03.25.1.49.15.73.27,1.39-.42,2.08-1.79,1.73-.6-.15-1.18-.4-1.81-.44-.43-.03-.88-.15-.84-.71.03-.47.45-.57.84-.57.86-.01,1.41-.37,1.64-1.23.12-.43.52-.79.93-.7,1.44.28,2.82-.86,4.26.04-.08-1.98-.49-2.54-1.57-2.28-.45.1-.93.34-1.26-.13-.34-.49-.05-.97.25-1.37.29-.38.64-.73.16-1.18-1.54-1.45-2.72-3.29-4.65-4.3-.66-.35-.64-.68-.15-1.12.53-.47,1.02-.98,1.41-1.58,1.43-2.23,1.07-3.84-1.2-5.18-.59-.35-.98-.81-1.04-1.47-.2-2.28-1.53-3.7-3.45-4.71-.44-.23-.97-.47-1.02-1.02-.23-2.25-1.88-3.64-3.16-5.24-.64-.79-1.44-1.1-2.42-.56-.71.39-1.13.03-1.53-.57-1.37-2.08-2.28-4.26-1.83-6.82.09-.53-.07-1-.39-1.4-.58-.76-1.21-1.49-1.78-2.25-.44-.58-.88-.51-1.16.05-.69,1.38-1.27.88-2.12.1-1.63-1.51-3.23-3.11-5.68-3.36-1.25-.13-1.71-1.58-.93-2.61.53-.69,1.24-1.34,2.11-.84,1,.57.02,1.19-.2,1.77-.13.34-.48.66-.05.99.31.24.64.09.93-.09,1.92-1.21,2.01-3.71.17-5.04-2.21-1.6-4.45-1.24-6.72-.12-.98.48-1.68,1.06-1.32,2.32.14.48-.06.99-.28,1.45-.23.48-.59.75-1.09.39-.86-.61-1.6-1.29-1.64-2.49-.08-2.61,1.11-3.99,3.91-4.4,1.24-.18,2.47-.33,3.71-.5.24-.03.55.01.66-.26.14-.35-.17-.53-.38-.71-1.21-1.03-2.48-1.95-3.99-2.53-1.59-.61-2.14-2.76-.96-4.01.7-.75.6-1.29-.03-1.91-.67-.66-.74-1.44-.57-2.31.1-.53.2-1.07.18-1.61-.16-4.73-3.05-8.03-5.95-11.32-1.53-1.74-3.63-1.38-4.84.93-1.05,2-1.68,4.16-2.17,6.36-.31,1.39-.35,2.79-.13,4.54Zm69.29,106.07c6.29-.07,11.32-2.1,16.33-4.14,1.21-.49,2.4-.93,3.69-1.12,2.47-.37,4.95-.66,7.44-.79.99-.05,1.98-.21,2.97-.38.32-.05.85-.14.53-.71-.6-1.08-3.15-1.93-4.28-1.38-1.79.88-3.46.71-5.02-.5-.41-.32-.69-.42-1.18-.06-2.11,1.53-3.05,1.51-5.18,0-.58-.41-1.39-1.12-1.87-.82-1.61,1.02-3.06.21-4.59-.02-.8-.12-1.65.12-2.48.21-1.99.23-3.86-.46-5.78-.71-2.88-.38-5.79-.6-8.7-.79-3.02-.19-6.03-.38-8.95-1.35-1.45-.48-2.99-.7-4.51-.96-3.7-.63-7.42-.88-11.16-1.16-4.02-.3-7.93-1.48-11.96-1.66-2.78-.12-5.48-.54-8.05-1.52-4.15-1.57-8.33-3.16-9.62-8.18-.23-.91-1-1.17-1.9-.74-.26.13-.52.29-.79.36-.84.21-1.71.04-2.05-.75-.3-.71.6-.86,1.05-1.14,1.53-.97,1.95-2.25,1.21-3.96-.92-2.13-2.11-2.83-3.95-2.28-1.5.45-2.74,1.38-4,2.26-.71.5-1.34,1.24-2.27,1.23-1.24-.01-2.17.54-2.98,1.35-.45.45-1.59.79-1.26,1.31.42.66,1.06-.34,1.65-.5.3-.08.61-.42.91-.12.24.24.04.56-.07.82-.7,1.76-1.01,3.6-1.23,5.47-.45,3.84.21,7.38,2.78,10.42.97,1.14,2.08,2.05,3.63,2.23,1.03.12,2.07.17,3.11.28,6.08.61,12.17,1.19,18.25,1.87,5.87.66,11.73,1.43,17.59,2.13,8.43,1.01,16.82,2.27,25.11,4.16,2.75.62,5.39,1.81,7.56,1.63Zm-31.73-123.69c-2.62,0-5.24,0-7.86,0-.25,0-.5.03-.74.08-.62.13-.86.43-.51,1.06.36.65.68,1.33.99,2.02,2.87,6.49,4.88,13.28,7.01,20.03.53,1.67,1.09,3.33,2.15,4.76,1.57,2.12,2.83,4.42,4.05,6.74,1.93,3.69,3.69,7.46,5.31,11.3.18.43.26,1.13.83,1.13.5,0,.53-.67.73-1.06.84-1.63,1.73-3.23,2.48-4.91,1.97-4.44,4.58-8.6,5.62-13.45,1.13-5.28,3.84-9.55,8.26-12.82,3.41-2.53,6.91-4.93,10.33-7.44.29-.22.73-.38.67-.82-.06-.5-.57-.39-.9-.5-.51-.18-1.04-.29-1.56-.46-11.97-3.93-24.29-5.68-36.85-5.67Zm-57.8,100.95c-.17.04-.55.06-.89.2-2.25.89-4.48,1.79-6.72,2.7-.54.22-1.05.49-1.33,1.06-.95,1.93-1.56,3.96-1.61,6.11-.06,2.57,1.26,4.46,3.69,5.37.82.31,1.67.51,2.5.8,1.84.64,3.57.03,4.44-1.68.61-1.18,1.15-2.4,1.65-3.64.73-1.8,1.36-3.62-1.02-4.79-.18-.09-.36-.26-.32-.49.05-.31.32-.37.57-.38.79-.05,1.57-.14,2.31-.47.61-.27.9-.69.81-1.37-.19-1.49-2.36-3.41-4.07-3.42Zm-20.15,17.07c-.14-1.62.44-3.23,1.06-4.82.46-1.17.68-2.39.85-3.62.06-.39.21-.93-.3-1.09-.49-.15-.7.36-.9.71-.36.65-.68,1.33-.99,2.01-1.32,2.9-2.27,5.98-3.99,8.7-.13.21-.32.45-.18.69.19.34.52.1.78.07.62-.08,1.23-.19,1.84-.3q1.85-.32,1.82-2.36Zm102.04-64.28c-.12.54-.06,1.02.61,1.13.65.11.89-.31,1.01-.85.35-1.67.62-3.35.56-5.07-.02-.65-.32-1.07-.86-1.4-2.11-1.26-2.14-2.04.03-3.26,1.02-.57,1.24-1.23.83-2.23-.2-.5-.36-1.02-.56-1.52-.09-.22-.11-.54-.41-.56-.29-.02-.38.28-.49.5-.84,1.77-1.63,3.56-2.12,5.45-.21.82-.36,1.8.47,2.43.94.72,1.13,1.72,1.13,2.77,0,.87-.13,1.74-.2,2.6Zm3.74-35.22c1.54-.68,3.06-1.12,4.72-.72.33.08.56-.22.59-.52.16-1.83,1.58-2.15,2.96-2.53,1.16-.32,2.34-.57,3.47-.98.94-.34,1.22-1.21.84-2.05-.37-.83-1.16-.47-1.74-.2-2.85,1.3-5.89,2.24-8.24,4.49-.85.82-1.9,1.43-2.59,2.52Zm-4.07,65.36c.88.11,1.21-.14.98-1.12-.3-1.28-.06-2.72-1.59-3.5-.47-.24-.55-1-.57-1.59-.03-.71-.05-1.41-.05-2.12,0-.68-.12-1.33-.33-1.96-.16-.47-.36-1.04-.99-.93-.53.09-.62.64-.61,1.11.01.54.06,1.08.14,1.61.28,1.89.66,3.77.57,5.7-.04.83-1,1.8-.11,2.41.64.44,1.68.28,2.55.4Zm.57-59.44c0,.29,0,.58,0,.87-.01.98.25,1.87,1.22,2.25,1.06.41,1.38-.65,1.93-1.19.12-.12.19-.27.3-.4.7-.82.58-1.57-.17-2.29-.72-.69-1.42-1.4-1.9-2.29-.11-.21-.21-.5-.52-.44-.27.05-.39.31-.46.55-.27.96-.44,1.94-.4,2.94Zm-7.98,22.47c1.17-.4,1.91-1.39,2.71-1.05,1.7.74,1.52-.49,1.74-1.39.06-.24.12-.49.2-.72.37-.97.83-1.99-.98-1.73-.19.03-.41-.08-.59-.18-.73-.41-1.1-.02-1.51.55-.91,1.28-.72,2.87-1.57,4.51Zm3.49,23.03c.53-.23.49-.77.48-1.24-.02-2.01.06-3.99,1.12-5.79.14-.25.3-.54,0-.79-.25-.2-.6-.22-.82-.06-1.09.77-1.66,2.03-2.65,2.9-.09.08,0,.4.06.59.37,1.23.75,2.46,1.14,3.69.1.31.2.65.69.71Zm-117.9,40.37c.72-.14,1.41-.26,2.1-.4.29-.06.59-.17.63-.51.06-.4-.23-.63-.54-.74-1.46-.51-2.94-.39-4.4,0-.29.08-.52.29-.52.63,0,.34.24.53.54.59.73.16,1.46.29,2.19.43Zm115.49-56.07c-2.2-.98-2.61-2-1.7-3.66.08-.15.19-.27.26-.42.19-.42.82-.89.24-1.28-.58-.39-.97.24-1.27.68-.18.27-.29.6-.36.92-.18.77-.3,1.54-.95,2.12-.39.35-.31.9.16,1.01,1.1.25,2.1,1.03,3.61.64Zm2.51-6.59c-1.33.81-1.85,1.94-2.19,3.2-.2.73.16,1.12.84,1.23.71.12,1.42-.13,1.33-.89-.13-1.12.27-2.22.02-3.55Z"></path><path class="cls-1" d="m57.86,210.13c1.9.85,3.92,1.33,5.84,2.1,12.55,5.05,15.71,18.98,9.82,28.98-2.09,3.55-4.31,6.95-7.96,9.11-4.42,2.62-9.27,3.96-14.35,4.3-16.47,1.11-32.97.34-49.46.55-1.08.01-1.79-.21-1.73-1.5.04-.88.37-1.29,1.27-1.32,1.45-.04,2.91.08,4.36-.22,3.26-.68,5.17-2.59,5.89-5.85.72-3.24.65-6.55.67-9.82.09-17.04.09-34.07,0-51.11-.02-3.15-.05-6.33-.69-9.45-.69-3.34-2.7-5.24-6.07-5.73-1.28-.19-2.56-.3-3.86-.25-.96.04-1.59-.24-1.6-1.39,0-1.13.53-1.43,1.54-1.43,13.25.02,26.5-.14,39.74.1,6.53.12,13.08.98,18.99,4.17,7.88,4.26,12.44,10.73,12.29,19.91-.11,7.13-5.03,15.71-13.59,18.26-.37.11-.85.04-1.1.59Zm3.41,21.04c-.28-5.91-2.94-11.44-9.04-15-2.54-1.48-5.3-2.4-8.17-3-6.1-1.27-12.25-.88-18.4-.5-.79.05-1.09.48-1.09,1.22,0,1.33.01,2.67,0,4-.11,9.7.27,19.41-.21,29.1-.06,1.13.4,1.68,1.5,1.87,3.61.62,7.22,1.14,10.89,1.31,4.72.22,9.31-.24,13.69-2.09,6.73-2.84,10.82-8.87,10.82-16.92Zm-36.72-41.34h0c0,5,.05,10-.03,15-.02,1.35.46,1.91,1.72,1.95.21,0,.41.05.62.06,5.36.49,10.73.81,16.08.2,5.34-.61,10.11-2.47,13.11-7.37,3.6-5.9,3.93-11.9.52-17.98-2.89-5.17-7.58-7.79-13.19-9.01-5.76-1.25-11.49-.92-17.23.18-1.22.24-1.65.72-1.64,1.97.06,5,.03,10,.03,15Z"></path><path class="cls-1" d="m419.98,195.18c.04-4.68-.08-8.96-.45-13.24-.4-4.59-2.31-5.87-6.78-4.48-1.45.45-1.97.15-2.18-1.24-.11-.73.14-1.16.85-1.44,5.07-2,10.14-4.03,15.21-6.05.27-.11.55-.2.83-.26,2.67-.6,3.11-.22,3.16,2.44.42,23.62.01,47.24.2,70.86.01,1.26.12,2.5.5,3.7.67,2.11,2.37,3.13,4.54,2.74.69-.13,1.4-.25,2.06-.49.78-.29,1.44-.49,1.79.55.38,1.11.11,1.75-.95,2.18-2.32.93-4.64,1.84-6.96,2.79-2.43.99-4.85,2.01-7.27,3.02-1.05.44-2.13.65-3.28.66-1.1,0-1.51-.51-1.47-1.52.06-1.45.16-2.91.18-4.36,0-.47.27-1.14-.26-1.37-.45-.19-.75.42-1.07.72-2.86,2.69-6.02,4.92-9.91,5.82-9.08,2.11-16.48-.81-22.42-7.77-2.21-2.59-3.73-5.6-4.98-8.76-.92-2.33-1.02-4.8-1.26-7.23-.84-8.67,1.43-16.47,6.52-23.53,3.12-4.33,6.9-7.85,11.91-9.74,7.05-2.66,13.94-2.66,20.3,2.05.28.21.56.61.97.37.33-.19.2-.61.21-.93.08-1.95-.23-3.91-.02-5.47Zm.02,35.82c-.07-4.56.08-9.39-.17-14.21-.21-4.12-1.25-7.92-4.13-10.97-3.07-3.25-6.9-4.76-11.31-3.64-5.36,1.35-8.54,5.22-10.54,10.16-2.08,5.14-2.27,10.56-1.95,15.98.34,5.68,1.91,10.98,5.74,15.39,2.76,3.17,6.04,5.48,10.36,5.9,3.96.38,7.16-1.28,10.17-3.66,1.4-1.11,1.9-2.32,1.85-4.06-.1-3.54-.03-7.08-.03-10.88Z"></path><path class="cls-1" d="m216.37,230.12c0,4.83-.01,9.66.01,14.5,0,1.04.09,2.08.26,3.11.4,2.5,2.55,4.42,5.06,4.61,1,.08,1.99.18,2.99.22.87.03,1.15.49,1.16,1.29,0,.78-.24,1.31-1.12,1.31-.42,0-.83,0-1.25,0-8.17,0-16.33,0-24.5,0-.96,0-1.77-.06-1.72-1.36.03-.8.29-1.26,1.16-1.27.5,0,.99-.11,1.49-.15,3.09-.26,4.77-1.76,5.31-4.83.19-1.06.31-2.15.31-3.23.02-10.29,0-20.58-.01-30.87,0-1.51-.22-2.99-.59-4.45-.65-2.55-2.15-3.46-4.75-2.92-.73.15-1.46.34-2.16.59-.92.33-1.29-.13-1.56-.91-.28-.79-.36-1.49.58-1.86,5.34-2.12,10.68-4.23,16.03-6.34.12-.05.24-.07.36-.1,2.61-.64,3.14-.25,3.11,2.38-.03,2.41-.12,4.83-.17,7.24,0,.35-.15.84.27,1.01.42.17.64-.28.89-.54,3.44-3.62,7.2-6.8,11.87-8.77,3.9-1.64,7.86-1.91,11.78-.22,4.81,2.07,7.27,6.07,8.38,10.97.68,2.97.79,6.01.78,9.06-.03,8.16,0,16.33,0,24.5,0,1.71.12,3.42.51,5.08.54,2.33,2.47,3.95,4.87,4.16.75.07,1.49.18,2.24.21.88.04,1.11.54,1.11,1.32,0,.82-.32,1.27-1.16,1.27-1.21,0-2.42.01-3.62.01-7.42,0-14.83,0-22.25,0-1.36,0-1.67-.36-1.52-1.61.08-.66.4-.95,1.05-.98.83-.04,1.66-.13,2.49-.21,3.42-.3,5.38-2.31,5.46-5.78.08-3.58.07-7.16.06-10.75,0-6.12,0-12.25-.05-18.37-.01-1.75-.22-3.49-.62-5.2-1.28-5.48-4.48-7.62-10.07-6.77-3.91.6-6.98,2.71-9.94,5.17-1.93,1.6-2.68,3.43-2.57,5.96.2,4.49.06,9,.06,13.49Z"></path><path class="cls-1" d="m311.85,226.17c0,5.65-.02,10.24,0,14.82,0,1.58.07,3.17.5,4.71.61,2.19,2.12,2.78,4.11,1.63,1.38-.8,2.46-1.98,3.61-3.07.34-.32.67-.91,1.22-.65.49.22.25.82.3,1.25.17,1.34-.35,2.38-1.21,3.4-2.31,2.76-4.7,5.42-8.1,6.9-1.47.64-2.97,1.12-4.6.92-3.78-.46-5.85-2.68-6.4-6.83-.2-1.51-.48-1.64-1.71-.67-2.62,2.07-5.33,3.99-8.18,5.74-4.44,2.72-13.39,2.82-17.79-1.86-5-5.31-5.54-13.76-.9-19.41,2.67-3.25,6.1-5.51,9.78-7.43,5.44-2.84,11.1-5.16,16.9-7.15,1.21-.42,1.72-.99,1.68-2.32-.09-2.79-.07-5.59-.99-8.27-1.92-5.57-8.39-8.08-13.63-5.31-2.7,1.43-4.06,3.99-3.73,7.01.14,1.29.16,2.57-.12,3.85-.52,2.38-2.11,3.91-4.37,4.18-2.45.29-4.68-.86-5.71-2.97-1.53-3.16-.58-6.07,1.18-8.73,2.28-3.45,5.56-5.85,9.45-7.06,6.86-2.14,13.84-2.15,20.59.48,4.8,1.87,7.39,5.62,7.85,10.8.5,5.7.12,11.41.26,16.04Zm-10.81,6c.09-2.7-.14-5.79.14-8.86.08-.9-.41-1.02-1.08-.79-.98.34-1.96.72-2.91,1.14-4.64,2.04-9.38,3.86-13.26,7.35-4.55,4.1-5.02,10.81-.75,15.25,2.06,2.15,4.59,3.07,7.62,2.26,3.58-.97,6.56-3,9.45-5.21.66-.51.81-1.2.8-2-.02-2.92,0-5.83,0-9.13Z"></path><path class="cls-1" d="m118.23,220.67c-6.04,0-12.08.02-18.12-.02-1.19,0-1.58.36-1.56,1.57.12,6.52,1.93,12.4,6.4,17.29,5.31,5.8,11.77,8.2,19.49,6.02,4.44-1.26,7.43-4.46,9.61-8.42.44-.8.79-1.65,1.2-2.47.26-.52.29-1.4,1.18-1.14.88.26,1.63.85,1.42,1.91-.28,1.38-.56,2.8-1.08,4.1-2.03,5.06-4.92,9.6-9.2,13.03-6.51,5.21-16.82,5.79-24.07,1.67-8.97-5.11-13.11-13.1-13.99-23.12-.51-5.78.04-11.44,2.15-16.83,3.89-9.94,11.2-15.56,21.87-16.67,5.86-.61,11.29.64,16.04,4.2,5.26,3.95,7.83,9.38,8.26,15.87.2,3,.14,3-2.85,3-5.58,0-11.16,0-16.75,0Zm-6.66-4.09c3.41-.14,7.57.19,11.74-.16,1.01-.09,1.29-.49,1.2-1.41-.16-1.62-.45-3.22-.98-4.76-2.16-6.32-9.26-9.61-15.44-7.09-5.41,2.21-8.27,6.48-9.46,12.04-.23,1.08.32,1.4,1.32,1.39,3.62-.02,7.25,0,11.62,0Z"></path><path class="cls-1" d="m168.54,208.84c1.23-1.66,2.31-3.29,3.56-4.78,2.66-3.17,5.57-5.99,9.96-6.57,3.81-.5,7.88,2.35,8.6,6.06.74,3.84-2.99,7.36-6.83,6.46-1.59-.37-2.88-1.26-4.17-2.19-3.44-2.48-3.79-2.45-6.76.62-1.78,1.84-3.11,4.01-4.32,6.24-.27.5-.26,1.04-.26,1.58,0,8.95,0,17.91.02,26.86,0,1.12.21,2.23.32,3.35.36,3.69,3.94,5.47,6.85,5.84.49.06,1,.11,1.5.06,1.65-.17,1.69.8,1.53,2.24-.06.54-.5.57-.95.57-9.29,0-18.57-.02-27.86-.02-.82,0-1.24-.3-1.24-1.17,0-.78.1-1.37,1.08-1.48,1.56-.18,3.14-.16,4.62-.92,1.96-1.01,3.09-2.51,3.09-4.73,0-11.79,0-23.57-.03-35.36-.01-3.27-1.01-4.76-3.36-5.46-1.33-.4-2.56.13-3.79.46-.9.24-1.65.39-2.01-.72-.35-1.08.04-1.64,1.13-2.05,5.02-1.91,10-3.9,15-5.87.35-.14.7-.28,1.06-.38,2.5-.67,3.05-.25,3.05,2.26,0,2.58-.02,5.16,0,7.75,0,.4-.12.83.22,1.33Z"></path><path class="cls-1" d="m348.78,208.83c.6-.2.71-.78.99-1.21,2.26-3.48,4.77-6.73,8.48-8.82,3.85-2.17,8.37-1.58,11.08,1.48,2.8,3.16,1.89,7.96-1.87,9.51-2.14.89-4.19.29-6.07-.86-1.17-.71-2.26-1.56-3.4-2.33-1.07-.72-2.03-.57-3.07.22-2.77,2.1-4.53,4.96-6.13,7.94-.27.5-.23,1.05-.23,1.59,0,8.92.01,17.83.04,26.75,0,1.08.11,2.17.28,3.23.51,3.26,3.24,5.65,6.76,5.98.5.05,1,.09,1.5.06,1.09-.07,1.47.45,1.46,1.5,0,.98-.4,1.32-1.35,1.31-3.04-.03-6.08-.01-9.12-.01-5.92,0-11.83-.01-17.75,0-1.05,0-1.7-.24-1.61-1.46.05-.69.32-1.07,1.04-1.15,1.07-.12,2.16-.21,3.21-.46,2.97-.72,4.69-2.76,4.71-5.81.05-10.67.04-21.33,0-32,0-1.62-.26-3.24-.48-4.84-.31-2.2-2.68-3.84-4.88-3.43-.73.14-1.47.31-2.17.56-.92.34-1.5.17-1.82-.82-.32-.98-.05-1.57.93-1.94,2.72-1.04,5.42-2.15,8.13-3.21,2.44-.96,4.89-1.9,7.34-2.84.27-.1.55-.21.83-.28,2.43-.63,2.98-.22,2.98,2.27,0,2.54-.03,5.08-.03,7.62,0,.48-.14,1,.23,1.45Z"></path><path class="cls-1" d="m398.83,133.42c0,2.62,0,5.25,0,7.87,0,1.28.41,1.6,1.48,1.03,2.23-1.18,3.59-3.3,5.26-5.09.3-.32.06-.64-.31-.76-.35-.12-.73-.17-1.09-.28-.47-.14-.67-.48-.6-.96.07-.45.38-.62.8-.64,2.66-.09,5.32-.18,7.98-.26.46-.01.86.14.85.68,0,.66-.47.97-1.04,1.05-1.64.23-2.96,1.1-4.18,2.12-1.24,1.04-2.41,2.17-3.64,3.23-.65.57-.75,1.06-.16,1.78,2.17,2.64,4.51,5.13,6.82,7.64.71.77,1.62,1.3,2.69,1.5.61.12,1.19.39,1.07,1.13-.11.71-.78.65-1.31.65-2.62.01-5.25.01-7.87,0-.54,0-1.17.01-1.24-.73-.07-.77.51-.98,1.13-1.05.83-.1,1.23-.35.53-1.15-1.76-2-3.51-4.01-5.28-6-.38-.43-.81-.98-1.47-.72-.66.26-.41.93-.42,1.44-.03,1.54.04,3.08-.03,4.62-.06,1.34.48,2.12,1.78,2.45.44.11,1.22.16,1.1.76-.1.52-.84.39-1.33.4-2.17.02-4.33.02-6.5,0-.39,0-.94.12-1.03-.43-.07-.46.41-.58.76-.69,1.2-.39,1.48-1.25,1.47-2.43-.03-5.08-.01-10.16.02-15.25.01-1.91.12-3.83.15-5.74.02-1.19-.24-2.18-1.8-2.04-.37.03-.8-.1-.9-.53-.12-.49.35-.62.66-.77,1.36-.62,2.72-1.27,4.11-1.81,1.21-.46,1.51-.23,1.52,1.06.02,2.62,0,5.25,0,7.87Z"></path><path class="cls-1" d="m366.17,153.92c-4.72-.04-8.92-.29-13.11-.03-.61.04-1.38.13-1.42-.78-.04-.85.68-.91,1.32-1,1.83-.27,2.33-.78,2.34-2.59.02-7,.03-13.99.02-20.99,0-1.6-.32-1.86-2.06-2.24-.6-.13-1.68.17-1.56-.94.11-.98,1.06-.74,1.73-.75,2.75-.02,5.5-.02,8.25.01.54,0,1.31-.19,1.36.68.04.81-.69.79-1.26.9-1.73.35-2.39,1.06-2.4,2.81-.03,6.58-.04,13.16,0,19.74.01,2.41.75,3.06,3.21,3.08,1.25.01,2.49.08,3.74-.1,1.9-.27,3.2-1.28,4.03-2.98.35-.71.72-1.41,1.12-2.09.21-.35.55-.51.96-.33.41.17.55.48.47.91-.35,1.97-.71,3.93-1.05,5.9-.12.72-.62.79-1.2.79-1.67,0-3.33,0-4.47,0Z"></path><path class="cls-1" d="m18.35,153.89c-2.83,0-5.65,0-8.48,0-.59,0-1.4.19-1.47-.72-.06-.84.68-.93,1.3-1.05,1.84-.37,2.28-.92,2.35-2.76.25-6.57.2-13.15.19-19.73,0-2.68-.25-2.98-2.84-3.45-.53-.1-1.04-.2-1-.86.04-.67.6-.72,1.11-.72,3.08,0,6.16,0,9.24.01.43,0,1.02-.08,1.08.56.06.55-.4.75-.87.91-2.68.88-2.92,1.17-2.93,3.98-.02,5.2-.02,10.41,0,15.61,0,1.28-.23,2.55-.02,3.86.21,1.33.92,2.08,2.15,2.21,1.73.19,3.49.23,5.23-.03,1.65-.24,2.83-1.12,3.54-2.64.37-.79.77-1.57,1.2-2.33.18-.33.49-.62.92-.5.47.13.68.54.6.97-.37,2.05-.74,4.09-1.19,6.12-.15.67-.84.57-1.37.58-2.91,0-5.83,0-8.74,0,0,0,0,0,0,0Z"></path><path class="cls-1" d="m423.18,142.36c-1.79,0-3.58.01-5.37,0-.81,0-1.09.3-1.01,1.13.28,3.09,1.84,5.33,4.54,6.72,2.45,1.26,5.15.46,6.7-1.82.28-.41.5-.87.74-1.3.15-.27.34-.49.69-.41.44.1.46.45.39.79-.1.53-.2,1.07-.39,1.57-2.31,5.92-8.51,7.26-13.24,3.03-4.43-3.98-3.79-14.12,2.35-17.01,5.01-2.36,10.51.34,11.42,5.76.19,1.14-.27,1.55-1.32,1.55-1.83,0-3.66,0-5.5,0Zm-2.32-1.78s0-.02,0-.03c1.08,0,2.16.03,3.24,0,.91-.03,1.25-.43.91-1.38-.7-1.94-2.13-2.93-4.2-2.8-1.7.11-3.42,1.62-3.8,3.29-.16.7.12.92.75.92,1.04,0,2.08,0,3.11,0Z"></path><path class="cls-1" d="m45.88,143.81c0,1.91-.05,3.83.02,5.74.06,1.58.47,1.76,1.79.97.36-.22.78-.78,1.18-.33.4.44-.05.95-.35,1.32-.76.95-1.61,1.81-2.73,2.33-1.25.58-2.44.22-2.91-1.01-.46-1.23-1.03-.91-1.76-.36-.96.73-1.94,1.47-3.17,1.67-2.98.48-5.46-2.13-5.05-5.25.29-2.13,1.38-3.69,3.2-4.8,1.71-1.04,3.5-1.94,5.32-2.75.89-.4,1.19-.96,1.01-1.86-.17-.81-.16-1.66-.6-2.41-.64-1.09-1.87-1.64-2.97-1.3-1.29.39-1.89,1.33-1.67,2.8.15.96-.04,1.74-.89,2.27-.54.33-1.1.38-1.64.01-.85-.58-1.12-1.38-.98-2.38.33-2.41,2.7-4.4,5.5-4.62,1.49-.11,2.93.15,4.25.79,1.56.74,2.36,2.06,2.37,3.8.01,1.79,0,3.58,0,5.37.02,0,.05,0,.07,0Zm-3.54,2.65s-.04,0-.06,0c.04-.83.08-1.66.13-2.49.03-.49-.14-.93-.69-.72-1.9.74-3.83,1.49-4.83,3.48-.65,1.29-.29,3.39.66,4.17.88.72,2.03.54,3.56-.39,1.01-.62,1.49-1.36,1.25-2.57-.1-.48-.02-.99-.02-1.49Z"></path><path class="cls-1" d="m388.6,143.29c.01,2.29-.03,4.57.21,6.85.14,1.36.28,1.45,1.44.8.47-.26,1.06-.93,1.52-.33.38.5-.24,1.07-.61,1.49-.63.72-1.31,1.4-2.15,1.88-1.39.79-2.87.39-3.52-1.03-.36-.78-.73-.78-1.31-.3-.39.31-.81.59-1.21.88-1.36.98-2.86,1.57-4.43.74-1.67-.89-2.61-2.43-2.77-4.34-.16-1.98.7-3.56,2.22-4.77,1.87-1.5,4.05-2.45,6.19-3.47.92-.44,1.24-1.02.99-1.97-.19-.76-.17-1.57-.59-2.28-.63-1.07-1.84-1.6-3.11-1.22-1.15.34-1.49,1.22-1.42,2.33.03.54.02,1.08-.12,1.61-.23.87-.71,1.44-1.66,1.37-.98-.08-1.61-.6-1.75-1.63-.29-2.2.81-3.73,2.56-4.75,2.5-1.45,5.12-1.32,7.61.1,1.22.69,1.9,1.84,1.9,3.31,0,1.58,0,3.16,0,4.74Zm-3.34,3.41h0c0-.25,0-.5,0-.75.01-2.94-.05-2.98-2.71-1.55-1.43.76-2.68,1.7-3.09,3.39-.54,2.25.94,4.16,2.92,3.76,1.77-.36,2.86-1.68,2.87-3.48,0-.46,0-.92,0-1.37Z"></path><path class="cls-1" d="m53.38,141.87c-.03,3.21.63,5.54,2.3,7.49,1.81,2.1,4.73,1.99,6.5-.17.56-.68.94-1.47,1.36-2.24.15-.27.28-.68.72-.53.33.11.31.46.31.75.01,2.4-2.86,6.17-5.27,6.93-2.69.84-5.74-.42-7.49-2.96-2.66-3.86-2.77-11.82,1.8-15.57,2.77-2.27,7.11-2.27,9.36.35.55.64.97,1.35,1.1,2.21.21,1.43-.19,2.09-1.39,2.35-1.34.29-2.11-.2-2.5-1.57-.07-.24-.13-.48-.16-.73-.17-1.23-.77-2.14-2.02-2.4-1.31-.27-2.36.27-3.15,1.32-1.22,1.62-1.42,3.51-1.47,4.78Z"></path><path class="cls-1" d="m338.3,153.6c-2.5-.04-4.45-.91-5.38-3.42-.39-1.05-.91-2.05-1.34-3.08-.11-.26-.25-.59.03-.81.28-.21.57-.01.79.16,2.24,1.78,4.76,3.21,6.73,5.33.36.38.86.73.72,1.36-.08.36-.65.51-1.56.46Z"></path><path class="cls-1" d="m333.79,159.96c0,1.34-1,2.57-2.19,2.85-.66.15-.95-.19-1.02-.75-.32-2.36-1.05-4.6-2.01-6.77-.12-.28-.34-.67-.02-.92.35-.28.58.14.85.3,1.33.81,2.35,1.96,3.41,3.07.63.66.91,1.47.98,2.24Z"></path><path class="cls-1" d="m307.51,163.45c-.05-.77.09-1.13.76-.77,1.06.57,2.13,1.15,2.99,2.01.6.6,1.11,1.41.54,2.22-.6.86-1.47,1.48-2.61,1.47-.43,0-.66-.34-.74-.73-.33-1.46-.65-2.92-.94-4.19Z"></path><path class="cls-1" d="m218.48,105.4c-1.48-1.16-3.42.06-5.27-.26-1.23-.21-2.2-.11-2.89,1.05-.16.26-.49.46-.78.6-.32.16-.7.39-1.05.08-.31-.27-.14-.64-.01-.93.32-.79.21-1.52-.13-2.28-.67-1.46-.87-3.04-1-4.61-.1-1.13-.54-2.02-1.42-2.65-1.77-1.28-2.31-3.42-3.58-5.05-.63-.81.15-1.97,1.13-1.93.55.02,1.15.51,1.65-.03.62-.68,1.13-1.45,1.35-2.36.19-.75-.03-1.95,1.27-1.64,1.36.32.8,1.45.58,2.27-.38,1.45-.8,2.91-2.25,3.74-.29.17-.52.45-.41.83.1.36.41.5.76.56.2.03.41.04.62.07,2.88.35,4.58,2.43,4.39,5.33-.02.24.1.55-.2.65-.36.12-.54-.19-.66-.44-.22-.45-.37-.92-.58-1.38-.12-.26-.27-.56-.63-.49-.34.06-.47.38-.44.67.09,1.12.21,2.23.35,3.34.04.27.23.74.51.57.88-.53,1-.04,1.2.66.2.69.76.53,1.23.3,1.88-.9,3.89-.81,5.89-.71,1.71.09,2.42.79,2.51,2.19.09,1.51-.22,1.84-2.11,1.84Z"></path><path class="cls-1" d="m210.72,117.1c.56-2.07,2.47-3.58,2.27-5.93-.03-.37.05-.71.46-.77,1.02-.15,2.04-.45,3.09-.22.94.21,1.24.79.88,1.67-.36.89-.77,1.74-.93,2.71-.15.88-.92.9-1.58.84-1.19-.11-1.72.3-1.86,1.55-.19,1.71-1.13,2.09-2.59,1.22-.21-.13-.43-.27-.67-.32-1.19-.27-1.72-.87-1.3-2.14.21-.64.03-1.29-.36-1.89-.76-1.15-.58-4.11.26-5.23.52-.69,1.12-.38,1.67-.07.56.31,1,.87.48,1.41-.72.76-.56,1.4-.2,2.23.44,1.03.15,2.13.06,3.21-.05.56-.2,1.15.32,1.74Z"></path><path class="cls-1" d="m199.92,89.15c-.03-.54-.05-1.07-.08-1.61-.04-.69.15-1.23.88-1.45.37-.11.77-.3.81-.7.19-1.61,1.13-3.12.61-4.84-.18-.62-.26-1.32.2-1.91.13-.17.38-.24.56-.1.64.49.38,1.21.42,1.85.03.57-.1,1.17.34,1.66.8.88.64,1.8-.04,2.59-1.38,1.58-1.64,3.59-2.28,5.47-.11.31-.14.65-.24.97-.13.41-.35.83-.83.8-.61-.04-.47-.59-.48-.97-.03-.58,0-1.16,0-1.74.04,0,.08,0,.12,0Z"></path><path class="cls-1" d="m199.96,82.21c.03,1.36-1.18,2.23-2.46,1.76-.93-.35-1.65-.97-2.16-1.81-.46-.74-.85-1.52-1.27-2.29-.31-.56-.22-1.04.32-1.4.56-.37,1.11-.44,1.51.2.57.91,1.4,1.35,2.41,1.61.96.25,1.62.84,1.65,1.93Z"></path><path class="cls-1" d="m223.04,115.83c-.91.04-1.5-.32-2.02-.83-.59-.58-1.08-1.27-1.9-1.59-.38-.14-.45-.46-.35-.83.07-.25.18-.5.46-.54.35-.05.54.22.64.5.25.73.76.69,1.4.62,1.37-.15,2.74-.16,4.11.05.54.09,1.1.23,1.16.92.07.69-.43.92-.96,1.12-.87.33-1.77.46-2.54.57Z"></path><path class="cls-1" d="m220.81,97.2c.03-.15.06-.44.15-.72.21-.69.19-1.6,1.15-1.71.65-.08,1.54,1.67,1.48,2.78-.05.91-.55,1.34-1.43,1.4-.97.06-1.4-.46-1.34-1.75Z"></path><path class="cls-1" d="m186.24,42.7c.08-.69-.15-1.44.55-1.86.39-.23.82-.06,1.18.16.67.43.67,1.09.5,1.77-.2.79-.53,1.52-1.4,1.75-.45.12-.69-.23-.75-.64-.06-.41-.05-.82-.07-1.18Z"></path><path class="cls-1" d="m218.47,118.8c-1.02-.03-2.31-1.26-2.37-2.19-.05-.66.26-1.17.87-1.35.61-.18.74.4.88.82.19.59.6.97,1.08,1.32.3.22.6.5.4.94-.18.39-.57.44-.85.47Z"></path><path class="cls-1" d="m190.36,70.59c.37.02.78,0,.99.38.22.39-.06.71-.29,1-.41.52-.81,1.04-1.27,1.52-.35.36-.8.57-1.1-.04-.35-.73-.12-1.46.2-2.14.29-.61.86-.71,1.47-.71Z"></path><path class="cls-1" d="m215.54,98.51c-.71.01-1.13-.2-1.14-.84-.02-.77.93-1.37,2.1-1.31.54.03,1.15.03,1.13.83-.02.84-.88,1.34-2.09,1.32Z"></path><path class="cls-1" d="m186.32,66.21c0,.17.02.33,0,.5-.05.34.14.85-.37.92-.39.05-.46-.41-.62-.68-.33-.57-.66-1.15-.95-1.74-.21-.43-.59-.99.1-1.25.61-.24,1.33-.31,1.65.55.2.55.2,1.14.19,1.72Z"></path><path class="cls-1" d="m176.5,135.95c.08-.49.17-.97.25-1.46.1-.63.4-1,1.09-.79.63.19,1.03.61.74,1.3-.32.75-.71,1.48-1.13,2.19-.3.51-.63.3-.77-.14-.12-.34-.12-.72-.18-1.09Z"></path><path class="cls-1" d="m157.67,147.39c-.83.01-2.29-1.93-2.04-2.72.12-.37.39-.41.69-.27.79.37,1.56.78,2.16,1.42.26.28.4.64.23,1.03-.2.44-.6.52-1.03.54Z"></path><path class="cls-1" d="m238.3,67.13c.5-.49,1.06-.91,1.36-1.58.22-.48.68-.52,1.01-.13.63.74.51,1.63.26,2.47-.18.58-.72.8-1.3.73-.87-.1-1.3-.63-1.32-1.51,0,0-.01.02-.01.02Z"></path></g></g></svg> 